# xmcd
#
# Track frame offsets:
# 150
# 31725
# 63377
#
# Disc length: 1780 seconds
#
#
# Revision: 0
# Processed by: cddbd v1.5.2PL0 Copyright (c) Steve Scherf et al.
# Submitted via: FreeRIP 2.943 
#
DISCID=1c06f203
DTITLE=the grasshopper lies heavy - soft noise
DYEAR=2008
DGENRE=Opera
TTITLE0=soft noise 1 (crescendo)
TTITLE1=soft noise 2 (zeitgeist)
TTITLE2=lugubre mix 1 (soft noise remix by adam w. flynn-gp~00)
EXTD=
EXTT0=
EXTT1=
EXTT2=
PLAYORDER=
